<?xml version="1.0" standalone="no"?>
<!DOCTYPE svg PUBLIC "-//W3C//DTD SVG 20010904//EN"
 "http://www.w3.org/TR/2001/REC-SVG-20010904/DTD/svg10.dtd">
<svg version="1.0" xmlns="http://www.w3.org/2000/svg"
 width="300.000000pt" height="300.000000pt" viewBox="0 0 300.000000 300.000000"
 preserveAspectRatio="xMidYMid meet">
<metadata>
Created by potrace 1.10, written by Peter Selinger 2001-2011
</metadata>
<g transform="translate(0.000000,300.000000) scale(0.100000,-0.100000)"
fill="#000000" stroke="none">
<path d="M1413 2933 c-17 -15 -81 -122 -211 -353 -14 -25 -60 -106 -102 -180
-43 -74 -86 -151 -96 -170 -11 -19 -38 -66 -61 -105 -119 -202 -681 -1194
-687 -1213 -4 -12 -20 -35 -36 -50 -22 -20 -35 -50 -55 -122 -14 -52 -25 -105
-25 -117 0 -41 -55 -192 -95 -263 -8 -14 -15 -52 -15 -86 0 -94 7 -98 202
-104 l161 -5 14 -48 c15 -53 37 -67 103 -67 57 0 82 16 113 71 l28 49 312 1
c172 1 420 1 552 -1 132 -1 256 -2 275 -2 19 0 145 0 279 1 135 0 247 -2 250
-5 3 -3 10 -24 16 -47 13 -53 42 -69 112 -64 64 4 83 20 115 93 19 45 26 54
43 49 72 -22 108 -26 172 -21 101 8 145 28 174 79 21 37 24 54 23 137 -1 58
-7 110 -17 134 -12 34 -13 44 -1 72 18 43 18 175 0 218 -17 42 -67 66 -138 66
-29 0 -57 4 -63 8 -5 4 -22 30 -36 57 -22 43 -67 123 -168 298 -31 56 -100
176 -123 217 -11 19 -77 134 -146 255 -69 121 -136 240 -150 265 -13 25 -31
52 -38 60 -7 9 -17 24 -21 35 -8 19 -94 174 -113 205 -6 8 -86 148 -178 311
-92 162 -177 308 -189 324 -19 26 -27 30 -90 33 -56 3 -72 1 -90 -15z m154 -8
c11 -8 37 -43 56 -77 38 -70 52 -94 126 -222 28 -49 51 -90 51 -92 0 -1 27
-48 60 -104 33 -56 60 -103 60 -106 0 -2 22 -41 49 -86 27 -46 59 -101 71
-123 12 -22 68 -119 123 -215 55 -96 109 -191 120 -210 10 -19 105 -186 211
-370 105 -184 204 -361 220 -393 l29 -57 61 0 c123 0 163 -48 153 -187 -3 -39
-10 -81 -17 -92 -8 -17 -6 -36 10 -90 24 -81 25 -130 5 -198 -20 -68 -50 -94
-121 -109 -97 -21 -159 -16 -245 20 -13 6 -19 -3 -29 -39 -7 -26 -28 -62 -45
-81 -28 -29 -39 -34 -79 -34 -61 0 -96 32 -96 87 l0 38 -232 -2 c-128 -2 -267
-3 -308 -4 -41 -1 -88 4 -103 10 -22 8 -39 8 -66 0 -25 -7 -79 -9 -157 -5 -65
4 -135 6 -154 6 -19 -1 -181 -3 -360 -6 l-325 -5 -22 -49 c-24 -55 -48 -70
-113 -70 -52 0 -80 25 -87 78 l-6 42 -56 1 c-31 1 -99 0 -152 -1 -135 -3 -159
11 -159 93 0 36 10 70 39 130 21 45 41 93 44 107 3 14 10 39 15 55 6 17 18 70
27 118 20 108 38 152 69 172 13 9 27 27 30 41 6 24 36 79 215 391 73 129 83
147 141 248 31 55 101 179 157 275 55 96 110 192 122 213 19 33 47 82 122 215
75 131 105 183 127 222 14 25 47 83 74 129 26 46 48 85 48 86 0 7 135 233 148
248 20 22 118 24 149 2z"/>
<path d="M1472 2833 c-12 -22 -192 -339 -400 -704 -208 -365 -454 -797 -547
-959 -92 -162 -174 -302 -181 -311 -8 -8 -14 -19 -14 -22 0 -4 524 -7 1165 -7
641 0 1165 3 1165 6 0 3 -8 18 -19 32 -10 15 -265 459 -566 987 -301 528 -555
973 -565 989 l-18 29 -20 -40z m74 -108 c20 -33 47 -80 61 -105 14 -25 45 -79
68 -120 23 -41 82 -145 130 -230 48 -85 91 -159 95 -165 8 -10 35 -56 78 -135
33 -59 55 -98 67 -118 6 -9 33 -57 60 -105 28 -49 60 -105 72 -125 13 -20 26
-44 30 -52 4 -8 38 -68 75 -133 37 -65 68 -122 68 -127 0 -6 5 -10 10 -10 6 0
10 -5 10 -11 0 -6 29 -60 65 -120 36 -61 65 -111 65 -113 0 -2 23 -43 51 -91
28 -47 49 -88 46 -91 -5 -5 -2198 -6 -2204 -1 -3 4 14 38 46 92 22 37 214 373
249 435 13 25 34 61 46 81 37 64 99 173 121 214 13 22 52 91 89 153 36 62 66
115 66 118 0 3 16 30 35 60 19 30 35 56 35 59 0 3 28 53 63 112 35 60 99 171
143 248 43 77 86 151 94 166 8 14 37 65 64 114 36 65 52 85 58 74 5 -8 25 -41
44 -74z"/>
<path d="M1460 2698 c-11 -18 -18 -37 -17 -43 2 -5 -7 -18 -20 -28 -13 -10
-23 -25 -23 -33 0 -8 -4 -14 -8 -14 -4 0 -30 -43 -57 -96 -28 -52 -56 -106
-63 -120 -12 -22 -12 -28 2 -43 18 -20 12 -31 -16 -31 -23 0 -43 -45 -51 -110
-3 -25 -9 -64 -13 -88 l-7 -43 -26 25 c-25 24 -27 24 -46 8 -12 -9 -27 -30
-35 -47 -8 -16 -42 -79 -76 -140 -33 -60 -64 -120 -68 -132 -4 -13 -13 -29
-21 -36 -14 -15 -85 -149 -85 -162 0 -4 -11 -20 -25 -37 -14 -16 -28 -42 -31
-56 -4 -15 -16 -40 -28 -57 -12 -16 -35 -57 -51 -90 -16 -33 -42 -80 -59 -104
l-29 -44 28 -24 c15 -13 25 -26 23 -28 -2 -3 -15 5 -27 16 -12 12 -24 19 -25
18 -2 -2 -17 -30 -35 -61 -26 -47 -30 -61 -21 -78 6 -11 15 -20 20 -20 6 0 10
-6 10 -13 0 -9 -11 -12 -35 -9 -62 7 -110 -45 -71 -77 16 -13 356 -14 356 -1
0 10 26 7 36 -3 15 -15 82 -7 88 9 6 16 8 16 24 0 20 -18 57 -21 67 -6 3 6 15
5 30 -2 19 -8 35 -8 62 0 24 8 41 8 47 2 14 -14 67 -12 98 4 23 12 29 12 39 0
14 -17 169 -20 169 -3 0 5 5 7 10 4 6 -3 10 -1 10 4 0 16 30 13 36 -2 6 -17
124 -24 124 -7 0 7 6 8 18 2 31 -17 143 -14 162 3 16 14 19 14 33 0 9 -8 33
-15 57 -15 33 0 42 4 52 25 l11 25 25 -25 c27 -27 42 -32 42 -13 0 9 3 9 12 0
14 -14 84 -16 93 -2 7 11 55 9 55 -2 0 -4 63 -8 139 -8 146 0 147 0 157 48 3
18 -36 42 -69 42 -26 0 -27 1 -13 16 22 21 20 45 -7 85 -13 19 -36 59 -51 89
-44 88 -51 95 -75 78 -12 -8 -18 -18 -14 -21 3 -4 1 -7 -5 -7 -6 0 -16 16 -23
35 -7 19 -17 35 -22 35 -4 0 -5 5 -2 10 3 6 15 10 27 10 14 0 18 -5 14 -16 -3
-8 -2 -12 4 -9 6 3 10 1 10 -4 0 -6 -4 -11 -10 -11 -5 0 -10 -4 -10 -10 0 -12
10 -13 29 -1 11 7 11 15 1 45 -6 20 -16 36 -21 36 -5 0 -9 7 -9 15 0 14 -18
50 -62 122 -13 21 -32 57 -43 81 -10 24 -26 49 -36 55 -9 7 -17 17 -19 22 -7
28 -12 42 -22 59 -5 10 -33 64 -61 119 -70 135 -79 151 -86 157 -3 3 -7 11 -9
19 -1 7 -18 37 -37 67 -30 46 -38 53 -53 45 -43 -23 -46 -38 -17 -93 15 -29
32 -56 37 -59 5 -3 10 -9 9 -12 0 -10 27 -67 60 -122 16 -27 38 -69 50 -92 12
-24 22 -43 23 -43 0 0 16 4 34 9 34 10 41 4 20 -18 -11 -10 -9 -11 7 -5 16 6
18 5 8 -7 -18 -19 -16 -34 2 -19 9 7 19 9 23 5 4 -4 1 -10 -5 -12 -7 -3 -13
-11 -13 -19 0 -8 -3 -14 -7 -14 -9 0 -33 49 -33 67 0 7 -4 13 -10 13 -21 0 -8
-40 39 -118 27 -45 47 -82 45 -82 -2 0 6 -17 19 -37 42 -70 58 -98 88 -158 28
-57 41 -80 64 -115 5 -8 10 -17 11 -20 0 -3 8 -22 17 -42 21 -46 21 -46 2 -65
-9 -8 -18 -28 -21 -42 -5 -24 -10 -27 -35 -23 -24 4 -29 9 -29 32 0 19 -10 37
-31 54 -17 15 -29 32 -26 40 10 25 -10 36 -98 56 -58 12 -94 25 -102 37 -8 10
-19 25 -26 33 -7 8 -22 29 -34 45 -13 19 -40 37 -71 48 l-49 18 -18 82 c-9 45
-32 147 -51 226 -33 139 -38 177 -21 173 15 -4 67 29 83 53 15 23 15 37 -6
197 -22 172 -36 217 -69 219 -44 2 -84 19 -44 19 11 0 28 9 38 20 17 18 16 21
-10 67 -16 26 -37 66 -49 88 -11 22 -26 46 -33 53 -7 7 -13 18 -13 24 0 13
-73 126 -97 151 -23 24 -30 22 -53 -15z m42 -46 c-32 -5 -35 0 -21 32 l12 26
17 -27 c16 -27 16 -28 -8 -31z m-22 -42 c0 -5 -142 -268 -155 -288 -1 -1 -12
1 -23 5 -20 8 -17 16 60 154 66 118 85 145 100 141 10 -2 18 -8 18 -12z m151
-128 c42 -75 75 -140 72 -144 -12 -22 -40 -4 -63 40 -14 26 -48 88 -77 137
-29 50 -53 93 -53 97 0 7 32 16 40 11 2 -2 39 -65 81 -141z m-97 35 c16 -28
35 -59 42 -67 7 -8 12 -17 11 -20 -1 -3 14 -31 32 -63 l33 -58 -20 -22 c-13
-14 -22 -39 -24 -66 -4 -64 -24 -63 -33 1 -10 71 -26 88 -85 88 -59 0 -75 -17
-85 -88 -8 -64 -29 -65 -33 -2 -2 23 -9 52 -17 64 -13 19 -8 32 53 141 79 141
81 145 90 145 4 0 20 -24 36 -53z m12 -307 l7 -70 43 0 44 0 0 66 0 66 48 -7
c26 -4 48 -8 48 -8 3 -4 44 -334 44 -354 0 -15 -5 -21 -14 -17 -8 3 -16 -3
-19 -15 -4 -17 -13 -21 -47 -21 -39 0 -42 -2 -36 -22 3 -13 25 -104 47 -203
23 -99 48 -210 57 -247 l15 -67 51 -12 c48 -10 55 -16 101 -82 l50 -71 100
-16 c55 -8 96 -17 90 -20 -5 -3 -318 -3 -695 0 -586 4 -676 7 -619 18 36 6 77
12 90 12 32 0 37 5 94 83 27 37 55 67 63 67 8 0 31 5 52 11 35 11 38 15 50 68
6 31 35 150 62 264 58 239 52 232 178 243 50 5 70 11 66 19 -3 10 5 10 32 4
59 -14 75 -12 68 9 -5 15 -4 15 6 2 15 -17 60 -22 55 -6 -2 6 -12 11 -23 11
-10 0 -24 4 -31 8 -6 4 -14 4 -16 0 -4 -7 -58 -9 -77 -3 -21 6 -186 -3 -188
-11 -2 -5 -13 -9 -23 -9 -13 0 -18 4 -13 12 4 7 3 8 -5 4 -6 -4 -9 -12 -6 -17
8 -12 55 -12 55 0 0 5 34 8 75 7 77 -1 105 -12 38 -14 -95 -3 -152 -14 -146
-28 6 -15 -8 -17 -56 -8 -18 4 -31 13 -31 21 0 9 -6 13 -15 9 -11 -4 -15 2
-15 22 0 39 47 342 53 349 4 3 25 7 49 10 l43 5 2 -67 c1 -37 3 -68 5 -70 2
-1 19 0 39 2 l37 5 6 69 7 69 49 0 49 0 7 -70z m-400 -144 c20 -21 17 -28 -8
-21 -22 6 -22 6 -4 -9 11 -9 14 -16 7 -16 -7 0 -9 -5 -6 -10 3 -6 0 -13 -9
-16 -9 -3 -12 -12 -9 -22 6 -15 4 -15 -14 1 l-20 18 20 44 c12 25 23 45 25 45
2 0 10 -6 18 -14z m740 -17 c8 -17 11 -28 6 -25 -14 8 -21 -15 -11 -36 5 -9
16 -14 26 -12 12 3 22 -4 29 -18 7 -13 28 -53 48 -90 21 -38 34 -72 31 -78 -8
-12 -32 -13 -39 -1 -9 14 5 42 17 34 6 -4 7 -1 2 7 -6 10 -11 9 -21 -4 -9 -13
-14 -14 -20 -5 -4 7 1 18 12 27 18 13 18 14 -5 7 -16 -5 -21 -4 -17 4 6 10 -6
15 -26 12 -4 0 -5 6 -2 14 4 9 0 22 -7 31 -10 13 -10 17 0 24 10 6 9 9 -7 14
-23 8 -61 74 -54 95 3 8 0 11 -7 7 -6 -4 -11 -3 -11 3 0 9 15 18 32 20 4 1 15
-13 24 -30z m-700 -24 c-3 -8 -8 -43 -12 -78 l-6 -62 42 -33 c27 -23 48 -32
61 -29 14 4 19 1 16 -6 -3 -7 -28 -114 -57 -237 -29 -124 -60 -233 -68 -242
-8 -10 -27 -18 -41 -18 -32 -1 -54 -19 -107 -90 l-41 -55 -78 -12 c-80 -13
-123 -36 -105 -57 6 -8 3 -16 -11 -24 -14 -9 -19 -23 -19 -60 l0 -47 -39 0
c-23 0 -37 4 -34 10 2 6 -7 27 -21 47 l-24 37 26 43 c15 25 32 53 39 64 7 10
35 65 64 122 28 56 55 102 60 102 5 0 9 6 9 14 0 7 9 25 20 39 11 14 20 31 20
37 0 7 14 32 30 57 17 24 30 48 30 52 0 10 74 143 101 183 11 15 19 31 19 36
0 10 18 45 61 117 16 28 34 62 40 78 6 15 15 27 21 27 6 0 8 -7 4 -15z m728
-24 c3 -5 -1 -11 -9 -15 -9 -3 -15 0 -15 9 0 16 16 20 24 6z m-828 -86 c-31
-48 -55 -24 -29 28 17 32 19 33 31 15 12 -16 11 -23 -2 -43z m-42 -45 c-5 11
-4 12 5 4 8 -7 8 -17 -1 -37 -7 -15 -17 -27 -21 -27 -5 0 -5 -5 -1 -11 5 -8 1
-8 -13 0 -17 9 -22 6 -32 -16 -6 -14 -9 -28 -6 -32 8 -7 25 21 19 31 -3 4 -1
8 5 8 5 0 13 -4 16 -10 3 -5 2 -10 -3 -10 -6 0 -13 -11 -16 -25 -4 -14 -11
-25 -16 -25 -6 0 -10 -7 -10 -15 0 -8 -5 -15 -11 -15 -6 0 -8 -7 -5 -16 5 -12
2 -15 -10 -10 -13 5 -15 2 -11 -14 6 -23 -5 -26 -22 -7 -11 14 6 67 22 67 5 0
5 -4 2 -10 -3 -6 1 -7 10 -4 12 5 13 10 6 17 -17 17 -13 27 7 20 15 -6 15 -5
4 10 -12 14 -10 21 10 49 12 18 23 37 23 42 0 5 6 11 13 14 7 2 10 -2 6 -12
-3 -9 -1 -16 5 -16 13 0 15 27 1 35 -5 3 -7 12 -3 21 5 12 8 12 20 -3 8 -11
11 -12 7 -3z m1007 -125 c16 -35 16 -35 -8 -35 -23 0 -24 2 -12 17 12 15 12
16 -2 11 -26 -10 -42 13 -21 28 24 18 25 18 43 -21z m-1135 -130 c4 -9 -2 -23
-13 -33 -11 -9 -18 -23 -16 -29 3 -7 0 -13 -5 -13 -6 0 -13 -13 -17 -29 -3
-17 -14 -31 -26 -34 -10 -3 -17 -1 -13 4 3 5 1 9 -5 9 -5 0 -9 -9 -8 -19 1
-11 6 -17 14 -14 11 4 11 0 2 -21 -7 -14 -16 -26 -20 -26 -16 0 -39 13 -39 21
0 6 8 6 19 0 23 -13 36 -2 16 13 -12 9 -12 16 0 43 10 25 18 30 34 26 21 -5
29 11 11 22 -17 11 -11 25 8 18 14 -6 15 -4 5 8 -10 12 -7 17 18 28 16 7 26
17 23 22 -3 6 -12 2 -20 -8 -11 -15 -13 -16 -14 -2 0 31 36 41 46 14z m1211
-19 c-3 -8 0 -17 8 -20 8 -3 21 -19 30 -37 14 -26 15 -33 3 -40 -20 -13 -31
-11 -24 6 3 8 1 14 -5 12 -6 -1 -14 5 -18 13 -5 8 -13 25 -19 36 -8 16 -7 25
1 33 16 16 30 14 24 -3z m63 -131 c-11 -13 -10 -14 5 -8 15 5 17 3 11 -12 -4
-11 -4 -16 0 -12 10 9 37 -30 29 -43 -3 -6 -13 -10 -20 -10 -17 0 -38 36 -30
50 4 6 1 9 -7 8 -7 -2 -12 3 -10 11 2 8 -3 18 -10 22 -9 6 -3 9 16 9 24 0 27
-2 16 -15z m-1402 -76 c12 -19 11 -20 -10 -14 -16 4 -19 3 -9 -3 8 -6 11 -18
6 -31 -8 -25 -18 -27 -35 -6 -10 12 -9 15 5 15 14 0 15 3 5 15 -10 12 -9 16 4
21 9 3 13 10 10 15 -3 5 -1 9 3 9 5 0 14 -9 21 -21z m1466 -41 c-3 -4 0 -8 6
-8 6 0 8 -4 5 -10 -3 -5 -13 -10 -21 -10 -8 0 -13 4 -10 9 3 5 -2 12 -12 16
-16 6 -16 7 2 21 15 11 22 11 27 2 4 -7 5 -16 3 -20z m-1515 -39 c11 -19 11
-21 -3 -16 -18 7 -22 -8 -4 -19 8 -5 7 -10 -4 -18 -8 -6 -15 -13 -16 -16 -2
-8 -34 -85 -37 -88 -2 -2 -13 1 -24 8 -18 9 -19 14 -10 31 7 15 17 19 32 15
22 -5 22 -5 2 11 -20 15 -20 15 3 10 12 -3 22 -1 22 4 0 5 -5 9 -11 9 -13 0
-2 39 17 58 8 7 12 18 9 23 -4 5 -2 9 2 9 5 0 14 -10 22 -21z m1615 -151 c-4
-7 -2 -8 4 -4 7 4 12 2 12 -3 0 -6 -6 -11 -12 -11 -10 0 -10 -2 -1 -8 7 -4 9
-13 4 -21 -6 -9 -14 0 -29 29 -12 26 -15 40 -8 37 7 -3 13 1 13 9 0 10 -7 12
-21 8 -21 -6 -21 -6 -1 14 20 20 20 20 33 -10 7 -16 9 -34 6 -40z m40 -33 c3
-9 0 -15 -8 -15 -7 0 -13 7 -13 15 0 8 4 15 8 15 4 0 9 -7 13 -15z m-1765 -41
c-7 -9 -14 -22 -15 -29 -1 -7 -6 -20 -11 -29 -8 -14 -11 -15 -28 -1 -19 14
-19 14 -1 15 16 0 17 2 5 17 -12 15 -12 16 3 10 12 -4 15 -2 11 9 -3 9 2 14
18 15 16 1 19 3 7 6 -10 2 -15 10 -11 18 4 12 7 12 20 -1 12 -12 13 -17 2 -30z
m1787 -6 c3 -13 13 -30 21 -40 13 -14 12 -17 -6 -23 -26 -8 -34 -3 -59 39
l-21 35 22 4 c12 2 25 5 29 6 4 0 10 -9 14 -21z m-566 -7 c0 -4 -7 -16 -15
-27 -8 -10 -15 -25 -15 -33 0 -16 -29 -40 -49 -41 -10 0 -12 11 -9 45 3 25 2
48 -3 51 -21 13 -5 19 41 16 27 -2 50 -7 50 -11z m77 5 c-1 -6 8 -12 20 -14
13 -2 41 -27 65 -58 l43 -55 3 47 c2 31 -1 50 -10 55 -8 5 17 9 60 9 59 0 76
-4 92 -20 46 -46 4 -120 -67 -120 l-38 0 3 65 c3 54 1 65 -12 65 -13 0 -16
-12 -16 -65 0 -36 -4 -65 -9 -65 -5 0 -28 25 -51 55 -24 31 -44 54 -45 53 -1
-2 1 -27 4 -55 l7 -53 -41 0 c-37 0 -41 3 -41 23 1 17 -5 23 -25 25 -30 3 -49
-26 -27 -40 7 -4 -19 -8 -62 -8 l-75 0 3 65 c3 42 0 65 -7 65 -6 0 -11 -8 -11
-17 -1 -17 -1 -17 -14 0 -16 20 -42 22 -49 3 -7 -17 11 -36 34 -36 9 0 22 -7
29 -15 10 -12 9 -20 -4 -40 -15 -22 -23 -25 -78 -25 -48 0 -59 3 -50 12 16 16
16 115 0 121 -7 2 34 5 92 5 58 0 99 -3 93 -5 -8 -3 -13 -25 -13 -59 0 -53 0
-54 30 -54 17 0 30 5 31 13 0 6 4 3 8 -8 6 -16 12 -9 34 39 15 32 27 62 27 67
0 25 18 2 40 -53 35 -83 50 -86 50 -10 0 58 -1 60 -30 71 -34 11 -40 27 -11
27 11 0 19 -5 18 -10z m105 -6 c-6 -27 -17 -29 -33 -6 -16 21 -16 22 10 21 17
0 25 -6 23 -15z m-482 6 c0 -9 -30 -14 -35 -6 -4 6 3 10 14 10 12 0 21 -2 21
-4z m-672 -42 c2 -11 -4 -26 -12 -33 -14 -12 -14 -16 5 -42 11 -16 25 -29 30
-29 14 0 11 117 -3 123 -7 3 3 5 22 5 19 0 29 -2 23 -5 -7 -2 -13 -16 -13 -29
0 -21 4 -24 40 -24 33 0 40 3 40 20 0 10 -8 24 -17 29 -15 8 -11 10 20 11 36
0 37 -1 22 -17 -20 -20 -16 -100 6 -114 10 -6 3 -9 -21 -9 -26 0 -31 3 -22 12
7 7 12 22 12 35 0 20 -5 23 -40 23 -38 0 -40 -2 -40 -29 0 -16 6 -32 13 -34 6
-3 -7 -6 -29 -6 -37 -1 -44 3 -67 38 -25 38 -25 39 -6 44 27 7 21 42 -6 42
-17 0 -20 -8 -23 -49 -3 -41 0 -53 18 -66 21 -16 21 -16 -12 -12 l-33 4 3 60
c3 43 0 63 -10 70 -8 5 7 7 42 6 47 -3 55 -6 58 -24z m284 9 c24 -22 24 -77
-2 -103 -20 -20 -65 -26 -86 -12 -37 24 -40 101 -6 122 26 15 74 12 94 -7z
m124 9 c25 -16 34 -49 23 -81 -14 -38 -35 -51 -89 -51 -37 0 -40 2 -30 19 14
27 13 94 -2 109 -9 9 -1 12 38 12 27 0 54 -4 60 -8z m134 -7 c0 -8 -4 -15 -10
-15 -5 0 -10 5 -10 10 0 6 -9 10 -20 10 -11 0 -20 -4 -20 -9 0 -5 -3 -17 -7
-27 -5 -15 -2 -16 23 -11 25 5 30 2 31 -14 1 -10 -2 -19 -8 -19 -5 0 -9 5 -9
10 0 6 -9 10 -20 10 -15 0 -20 -7 -20 -25 0 -21 5 -25 30 -25 17 0 30 5 30 10
0 16 22 12 36 -7 10 -14 17 -16 30 -7 30 18 27 34 -9 49 -44 18 -51 29 -37 55
14 27 73 25 78 -2 2 -10 -1 -18 -7 -18 -6 0 -11 7 -11 15 0 17 -35 21 -45 5
-9 -15 13 -40 35 -40 10 0 23 -7 30 -15 10 -12 9 -20 -4 -39 -14 -23 -22 -24
-100 -25 l-85 -1 9 26 c14 35 12 88 -2 102 -9 9 0 12 40 12 40 0 52 -4 52 -15z
m-760 -46 c8 -14 4 -17 -24 -17 l-34 0 16 28 c17 29 19 28 42 -11z m880 20 c0
-11 -4 -18 -10 -14 -5 3 -7 12 -3 20 7 21 13 19 13 -6z m840 -31 c0 -5 -13 -8
-30 -8 -35 0 -36 2 -13 36 l16 26 13 -24 c7 -12 13 -26 14 -30z m-1620 -54 c3
-5 -59 -10 -137 -12 -125 -2 -156 2 -139 19 8 8 271 1 276 -7z m1747 -1 c4
-10 -28 -13 -136 -13 -125 0 -162 6 -145 23 3 3 67 4 141 4 99 -2 137 -5 140
-14z"/>
<path d="M1506 2103 c-3 -8 -2 -11 3 -8 5 3 12 1 16 -4 3 -5 14 -8 25 -6 12 2
18 0 15 -5 -3 -5 -1 -11 5 -15 5 -3 10 0 10 7 0 10 10 13 35 10 21 -3 35 0 35
7 0 6 -13 11 -30 11 -16 0 -31 0 -32 0 -2 1 -20 5 -40 9 -28 7 -38 5 -42 -6z"/>
<path d="M1320 2090 c0 -10 138 -6 148 5 3 3 -29 5 -71 5 -43 0 -77 -4 -77
-10z"/>
<path d="M1575 2020 c3 -5 8 -10 11 -10 2 0 4 5 4 10 0 6 -5 10 -11 10 -5 0
-7 -4 -4 -10z"/>
<path d="M1710 1900 c0 -5 5 -10 10 -10 6 0 10 5 10 10 0 6 -4 10 -10 10 -5 0
-10 -4 -10 -10z"/>
<path d="M1560 1860 c0 -5 10 -10 23 -10 18 0 19 2 7 10 -19 13 -30 13 -30 0z"/>
<path d="M1363 1844 c-10 -7 -16 -14 -13 -15 28 -7 73 -9 68 -3 -4 4 -4 12 1
18 14 17 -34 17 -56 0z"/>
<path d="M1445 1610 c-3 -5 -1 -10 4 -10 6 0 11 5 11 10 0 6 -2 10 -4 10 -3 0
-8 -4 -11 -10z"/>
<path d="M1435 1570 c3 -5 8 -10 11 -10 2 0 4 5 4 10 0 6 -5 10 -11 10 -5 0
-7 -4 -4 -10z"/>
<path d="M1359 1488 c-6 -18 -13 -35 -13 -38 -5 -16 -32 -50 -41 -50 -6 0 -17
-6 -24 -12 -6 -7 -16 -14 -21 -14 -6 -1 -13 -2 -16 -3 -4 0 -1 -8 6 -17 11
-12 11 -15 0 -12 -7 2 -14 -2 -17 -8 -2 -7 8 -11 27 -10 16 0 30 3 30 7 0 3
27 5 61 4 64 -2 66 0 71 50 2 24 -1 29 -14 27 -10 -2 -18 2 -18 8 0 5 -7 10
-15 10 -8 0 -15 5 -15 11 0 5 4 8 9 4 6 -3 15 3 21 12 11 17 11 17 6 1 -3 -10
0 -19 7 -19 22 -3 52 -8 75 -13 12 -3 22 0 22 5 0 5 10 14 23 19 15 6 3 7 -41
5 -58 -4 -63 -3 -57 13 20 48 19 52 -18 52 -30 0 -37 -4 -48 -32z m1 -98 c0
-5 -15 -10 -32 -9 -28 0 -30 2 -13 9 28 12 45 12 45 0z m30 -16 c0 -8 -4 -14
-10 -14 -5 0 -10 9 -10 21 0 11 5 17 10 14 6 -3 10 -13 10 -21z"/>
<path d="M1580 1439 c0 -5 5 -7 10 -4 6 3 10 8 10 11 0 2 -4 4 -10 4 -5 0 -10
-5 -10 -11z"/>
<path d="M1610 1439 c0 -14 19 -20 73 -26 34 -3 48 -2 42 5 -13 12 -115 31
-115 21z"/>
<path d="M1530 1430 c0 -5 5 -10 10 -10 6 0 10 5 10 10 0 6 -4 10 -10 10 -5 0
-10 -4 -10 -10z"/>
<path d="M1340 1319 c-83 -7 -192 -36 -150 -40 8 0 5 -4 -8 -7 -13 -4 -23 -11
-23 -17 -1 -5 -5 -15 -10 -22 -7 -7 -6 -14 1 -18 5 -3 10 0 10 8 0 8 7 20 15
27 20 16 19 6 -1 -25 -9 -14 -20 -22 -25 -19 -5 3 -14 -8 -20 -25 -9 -25 -17
-31 -47 -34 -20 -2 24 -4 98 -4 74 0 125 2 113 4 -13 2 -23 7 -23 11 1 15 29
107 29 97 1 -5 6 -4 13 3 7 7 20 12 29 12 10 0 20 6 23 13 5 10 7 10 12 0 3
-7 19 -13 35 -13 20 0 28 4 23 12 -5 7 -1 9 13 6 16 -4 22 0 25 16 5 26 3 26
-132 15z m97 -15 c-3 -3 -12 -4 -19 -1 -8 3 -5 6 6 6 11 1 17 -2 13 -5z m-176
-74 c-17 -51 -21 -55 -54 -61 -32 -5 -35 -4 -27 15 18 48 47 86 70 95 14 4 26
8 27 7 1 -1 -6 -26 -16 -56z"/>
<path d="M1320 1149 c0 -5 19 -9 42 -9 49 0 47 6 -4 13 -21 3 -38 1 -38 -4z"/>
<path d="M1856 2042 c-2 -4 0 -14 6 -22 8 -12 9 -12 5 2 -3 9 -1 19 6 22 9 3
9 5 0 5 -6 1 -14 -3 -17 -7z"/>
<path d="M1931 1932 c-1 -8 -6 -10 -13 -6 -10 5 -10 4 -1 -6 15 -16 28 -8 20
12 -4 11 -6 11 -6 0z"/>
<path d="M1940 1885 c7 -8 17 -15 22 -15 6 0 5 7 -2 15 -7 8 -17 15 -22 15 -6
0 -5 -7 2 -15z"/>
<path d="M1990 1799 c0 -5 5 -7 10 -4 6 3 10 8 10 11 0 2 -4 4 -10 4 -5 0 -10
-5 -10 -11z"/>
<path d="M2127 1535 c2 -8 11 -11 19 -8 16 6 11 16 -11 19 -8 1 -11 -4 -8 -11z"/>
<path d="M2205 1400 c-3 -5 -1 -10 4 -10 6 0 11 5 11 10 0 6 -2 10 -4 10 -3 0
-8 -4 -11 -10z"/>
<path d="M700 1270 c0 -5 5 -10 10 -10 6 0 10 5 10 10 0 6 -4 10 -10 10 -5 0
-10 -4 -10 -10z"/>
<path d="M652 1191 c2 -7 7 -12 11 -12 12 1 9 15 -3 20 -7 2 -11 -2 -8 -8z"/>
<path d="M1590 989 c0 -38 4 -58 10 -54 6 4 8 11 5 16 -11 16 7 9 21 -8 10
-14 17 -16 30 -7 30 18 27 34 -10 49 -28 12 -36 21 -36 40 0 14 -4 25 -10 25
-6 0 -10 -27 -10 -61z"/>
<path d="M2122 993 c3 -55 4 -58 28 -55 72 9 60 112 -13 112 -16 0 -18 -7 -15
-57z m43 -2 c2 -11 0 -21 -6 -21 -5 0 -9 12 -9 27 0 30 9 27 15 -6z"/>
<path d="M1857 1009 c-7 -27 -4 -32 17 -27 12 2 13 7 2 27 l-13 23 -6 -23z"/>
<path d="M1076 1034 c-22 -21 -20 -60 4 -84 24 -24 43 -25 64 -4 34 33 10 104
-34 104 -10 0 -26 -7 -34 -16z m49 -44 c0 -32 -21 -37 -27 -6 -3 14 -3 28 0
31 12 11 27 -3 27 -25z"/>
<path d="M1214 1036 c-3 -7 -4 -33 -2 -57 3 -41 5 -44 28 -41 37 6 50 21 50
58 0 23 -6 37 -19 44 -27 14 -51 13 -57 -4z m45 -57 c-14 -27 -19 -24 -19 12
0 27 2 30 15 19 11 -9 12 -17 4 -31z"/>
<path d="M1538 773 c-28 -52 -28 -53 -28 -257 0 -198 -1 -206 -22 -226 l-22
-20 69 0 c65 0 67 1 52 18 -14 16 -17 54 -19 278 l-3 259 -27 -52z"/>
<path d="M276 758 c-3 -18 -16 -64 -27 -101 -23 -74 -20 -105 3 -36 l14 43 18
-65 c9 -35 20 -72 22 -81 4 -14 -4 -17 -47 -20 -77 -4 -78 -28 -1 -28 l61 0
15 -52 c29 -103 29 -108 11 -128 -18 -20 -17 -20 51 -20 62 0 67 1 52 16 -8 9
-46 126 -84 260 -38 134 -72 244 -75 244 -4 0 -9 -15 -13 -32z m74 -273 c0 -8
-2 -15 -4 -15 -2 0 -6 7 -10 15 -3 8 -1 15 4 15 6 0 10 -7 10 -15z m47 -177
c-3 -8 -6 -5 -6 6 -1 11 2 17 5 13 3 -3 4 -12 1 -19z"/>
<path d="M460 782 c0 -4 9 -13 20 -20 19 -11 20 -25 22 -323 l3 -312 25 49
c24 48 25 56 30 314 l5 265 23 3 c42 6 62 -24 62 -90 0 -66 -19 -113 -51 -123
-25 -8 -24 -15 34 -165 l42 -110 50 0 c49 0 50 1 28 18 -13 10 -40 64 -66 134
-41 108 -43 118 -26 123 29 9 59 68 59 114 0 57 -24 100 -65 117 -36 15 -195
20 -195 6z"/>
<path d="M790 782 c0 -4 9 -13 20 -20 19 -12 20 -23 20 -232 0 -209 -1 -220
-20 -232 -34 -22 -23 -28 50 -28 40 0 70 4 70 10 0 6 -6 10 -14 10 -8 0 -17 7
-20 16 -10 26 -7 229 3 219 6 -6 30 -64 55 -130 l44 -120 46 -3 46 -3 -23 34
c-12 18 -42 85 -65 148 l-43 115 55 93 c30 52 63 102 72 112 17 18 15 19 -39
19 -54 0 -74 -11 -42 -24 23 -9 18 -31 -26 -109 -43 -75 -66 -107 -81 -107 -4
0 -8 45 -8 100 0 89 2 101 20 112 34 22 23 28 -50 28 -38 0 -70 -3 -70 -8z
m85 -242 c3 -5 1 -10 -4 -10 -6 0 -11 5 -11 10 0 6 2 10 4 10 3 0 8 -4 11 -10z
m70 -9 c3 -5 2 -12 -3 -15 -5 -3 -9 1 -9 9 0 17 3 19 12 6z m85 -222 c0 -6 -4
-7 -10 -4 -5 3 -10 11 -10 16 0 6 5 7 10 4 6 -3 10 -11 10 -16z"/>
<path d="M1216 608 c52 -101 110 -218 131 -260 58 -123 63 -112 63 137 0 224
6 264 45 278 35 14 11 27 -50 27 -36 0 -65 -3 -65 -7 0 -5 12 -19 25 -32 14
-13 25 -35 25 -50 1 -14 3 -81 6 -148 3 -68 1 -123 -3 -122 -4 0 -48 81 -98
180 l-89 179 -42 0 -41 0 93 -182z m-5 110 c37 -80 142 -275 156 -290 8 -9 13
-29 11 -45 -2 -23 -17 0 -80 127 -42 85 -78 160 -79 165 0 6 -10 22 -20 37
-21 28 -23 38 -11 38 4 0 15 -15 23 -32z"/>
<path d="M1721 768 c-126 -85 -128 -395 -3 -482 63 -43 124 -30 175 38 23 30
27 44 27 105 l0 71 -50 0 c-27 0 -50 -2 -50 -5 0 -3 7 -16 15 -28 8 -12 17
-48 21 -78 6 -50 4 -59 -15 -78 -31 -31 -70 -24 -98 18 -33 50 -46 105 -45
204 2 174 51 258 129 220 29 -13 51 -47 82 -123 8 -21 10 -15 10 37 1 60 0 63
-34 89 -51 38 -119 44 -164 12z m169 -333 c0 -14 -2 -25 -4 -25 -2 0 -6 11 -8
25 -3 14 -1 25 3 25 5 0 9 -11 9 -25z"/>
<path d="M1950 785 c0 -3 9 -14 20 -25 19 -19 20 -33 20 -230 0 -197 -1 -211
-20 -230 -11 -11 -20 -22 -20 -25 0 -3 30 -5 66 -5 l65 0 -20 26 c-18 23 -21
41 -21 120 l0 94 75 0 75 0 0 -97 c0 -86 -3 -99 -22 -120 l-21 -23 66 0 c63 0
86 11 52 24 -22 8 -22 464 0 472 34 13 11 24 -50 24 -68 0 -79 -7 -45 -28 18
-11 20 -23 20 -117 l0 -105 -75 0 -75 0 0 100 c0 87 3 103 20 120 11 11 20 22
20 25 0 3 -29 5 -65 5 -36 0 -65 -2 -65 -5z m73 -260 c-3 -9 -8 -14 -10 -11
-3 3 -2 9 2 15 9 16 15 13 8 -4z"/>
<path d="M2310 733 c0 -32 -3 -69 -7 -82 -4 -16 -3 -22 5 -17 6 3 13 20 17 36
10 43 52 90 81 90 l25 0 -3 -315 c-2 -173 -1 -315 2 -315 3 0 18 25 33 55 l27
55 0 260 c0 255 0 260 20 260 29 0 68 -45 81 -92 16 -60 22 -38 14 47 l-7 75
-144 0 -144 0 0 -57z"/>
<path d="M2694 767 c-23 -20 -28 -34 -32 -84 -5 -72 15 -118 78 -178 71 -68
99 -151 69 -207 -6 -11 -8 -22 -6 -25 11 -10 45 18 61 51 35 75 11 156 -74
243 -66 69 -75 91 -67 169 3 30 4 54 2 54 -2 0 -16 -11 -31 -23z m66 -205 c60
-64 93 -119 83 -136 -3 -5 -13 4 -21 20 -8 16 -36 52 -63 79 -45 47 -70 90
-68 118 0 7 3 5 6 -3 4 -8 32 -43 63 -78z"/>
<path d="M2795 768 c14 -13 37 -50 50 -83 l25 -60 0 72 c0 71 0 71 -31 82 -18
6 -41 11 -51 11 -17 0 -16 -3 7 -22z"/>
<path d="M1168 427 c-3 -95 -5 -108 -27 -131 l-24 -26 66 0 c53 0 67 3 67 15
0 8 -6 15 -14 15 -31 0 -46 42 -46 125 0 124 -18 126 -22 2z"/>
<path d="M178 405 c-3 -11 -9 -32 -12 -47 -3 -14 -18 -40 -32 -57 l-26 -31 69
0 68 0 -25 20 c-20 15 -26 30 -30 77 -4 37 -8 51 -12 38z"/>
<path d="M2650 357 c0 -70 1 -70 78 -92 27 -8 29 6 2 23 -21 13 -60 82 -60
106 0 8 -4 18 -10 21 -6 4 -10 -18 -10 -58z"/>
</g>
</svg>
